<svg width="28" height="28" viewBox="0 0 28 28" fill="none" xmlns="http://www.w3.org/2000/svg">
<path d="M26.6035 11.0615C26.6082 11.0146 26.6082 10.9674 26.6035 10.9205C25.4012 5.68109 20.5253 1.45 15.2199 1.0429C9.64622 0.615873 4.72436 3.39938 2.28219 8.39356C1.37528 10.2416 0.920451 12.2033 1.01143 14.2777C0.98046 16.6815 1.62755 18.9027 2.87583 20.9325C4.83688 24.1278 7.65139 26.1397 11.2912 26.97C11.6663 27.0571 11.7189 26.9596 11.7179 26.6084C11.7079 22.5265 11.7079 18.4447 11.7179 14.3629C11.7179 14.0202 11.6504 13.9056 11.2865 13.9113C10.0542 13.9293 8.82087 13.9056 7.58857 13.8971C7.58857 12.5717 7.61105 11.2462 7.57634 9.9207C7.5651 9.48421 7.70016 9.42649 8.09311 9.42649C10.2014 9.44729 12.3134 9.45774 14.418 9.42649C15.3202 9.41323 15.9626 9.71051 16.2937 10.5882L16.3331 10.8788C16.4269 11.0038 16.394 11.1505 16.394 11.2897V26.9786C16.4546 26.9833 16.5154 26.9833 16.576 26.9786C19.1082 26.5345 21.1959 25.2327 23.0471 23.52C24.74 21.9531 25.8391 19.9848 26.476 17.7684C27.1127 15.552 27.1859 13.3082 26.6035 11.0615ZM13.7277 8.35758C12.5676 8.41441 11.3259 7.05955 11.324 5.73413C11.3181 5.39748 11.3785 5.06296 11.5019 4.75018C11.6253 4.43735 11.8092 4.1525 12.0428 3.91215C12.2764 3.67186 12.5551 3.48092 12.8626 3.35045C13.1701 3.21998 13.5002 3.15259 13.8337 3.15228C14.5105 3.15378 15.1592 3.42606 15.6375 3.9095C16.1158 4.39289 16.3849 5.04799 16.3856 5.73127C16.3809 7.14192 15.2264 8.28467 13.7277 8.35758Z" fill="#A5A6B1"/>
</svg>
